#!OML:ASF H:\Pregnant\Project 1\Capture day 1\Session 1\femalepreg.ASF
:FULLY-SPECIFIED
:DEGREES
1247
root 0.420347 11.4536 19.1827 35.8904 -35.0396 359.138
lowerback 20.0975 1.4701 -0.901102
upperback -3.10426 2.05876 2.26254
thorax -15.0525 1.14495 2.42775
lowerneck -47.06 2.93568 1.15188
upperneck 1.32987 2.80103 -1.48258
head 6.75435 0.962975 -0.276549
rclavicle -3.97569e-015 -2.3059e-014
rhumerus 10.2355 30.3406 -75.0896
rradius 36.5818
rwrist 0.939231
rhand -12.6567 341.171
rfingers 7.12502
rthumb 13.4241 671.623
lclavicle -3.97569e-015 -2.3059e-014
lhumerus 5.98176 -32.6561 73.8221
lradius 47.0298
lwrist 35.3806
lhand -28.6157 -364.748
lfingers 7.12502
lthumb -1.98057 -334.777
rfemur -100.58 -12.0984 31.6198
rtibia 101.029
rfoot -32.5058 2.20829
rtoes -0.839088
lfemur 262.457 14.402 332.481
ltibia 95.8484
lfoot -30.1234 -6.86558
ltoes 0.323284
1248
root 0.407849 11.5681 19.1918 35.5126 -34.9934 359.224
lowerback 19.5909 1.42398 -0.911901
upperback -3.15164 1.99591 2.26906
thorax -14.8016 1.11767 2.46641
lowerneck -46.5999 2.9109 1.1755
upperneck 1.43927 2.76846 -1.39912
head 6.75241 0.966097 -0.254522
rclavicle 3.61788e-014 4.05521e-014
rhumerus 9.0635 29.9321 -75.4036
rradius 36.8859
rwrist 0.18132
rhand -12.4665 341.221
rfingers 7.12502
rthumb 13.6074 671.686
lclavicle 3.61788e-014 4.05521e-014
lhumerus 4.68963 -32.7403 74.231
lradius 47.106
lwrist 35.5337
lhand -28.6286 -364.59
lfingers 7.12502
lthumb -1.99306 -334.62
rfemur -99.2376 -12.1359 31.3638
rtibia 99.8613
rfoot -32.3853 2.01961
rtoes -1.06983
lfemur 263.936 14.1756 332.77
ltibia 94.5186
lfoot -29.9647 -6.47759
ltoes -0.335318
1249
root 0.394752 11.6828 19.2016 35.1664 -34.9782 359.292
lowerback 19.0515 1.39513 -0.950379
upperback -3.20989 1.95015 2.27918
thorax -14.5458 1.10062 2.51917
lowerneck -46.1137 2.88565 1.1978
upperneck 1.55525 2.7381 -1.32057
head 6.74994 0.96985 -0.233931
rclavicle -5.20816e-014 -3.49861e-014
rhumerus 7.87436 29.5069 -75.714
rradius 37.1098
rwrist -0.528661
rhand -12.3159 341.256
rfingers 7.12502
rthumb 13.7526 671.73
lclavicle -5.20816e-014 -3.49861e-014
lhumerus 3.38205 -32.8295 74.6689
lradius 47.1003
lwrist 35.6079
lhand -28.6192 -364.481
lfingers 7.12502
lthumb -1.98391 -334.511
rfemur -97.9125 -12.125 31.1086
rtibia 98.668
rfoot -32.233 1.8145
rtoes -1.34188
lfemur 265.392 13.9741 333.049
ltibia 93.1794
lfoot -29.7945 -6.08747
ltoes -1.01189
1250
root 0.381222 11.7977 19.2121 34.8507 -34.9895 359.346
lowerback 18.4821 1.38029 -1.01111
upperback -3.2799 1.91885 2.29228
thorax -14.2874 1.09208 2.5833
lowerneck -45.6044 2.86335 1.2243
upperneck 1.68213 2.71224 -1.25337
head 6.74883 0.974571 -0.217547
rclavicle -2.5842e-014 3.18055e-014
rhumerus 6.67419 29.0652 -76.0195
rradius 37.246
rwrist -1.19579
rhand -12.2204 341.28
rfingers 7.12502
rthumb 13.8446 671.761
lclavicle -2.5842e-014 3.18055e-014
lhumerus 2.05924 -32.92 75.1343
lradius 47.0177
lwrist 35.6161
lhand -28.5827 -364.413
lfingers 7.12502
lthumb -1.94873 -334.442
rfemur -96.6065 -12.0706 30.8552
rtibia 97.4493
rfoot -32.0488 1.58933
rtoes -1.66344
lfemur 266.825 13.7888 333.32
ltibia 91.8298
lfoot -29.6099 -5.69341
ltoes -1.69579
1251
root 0.36737 11.9126 19.223 34.5622 -35.0208 359.388
lowerback 17.8874 1.37571 -1.0891
upperback -3.36159 1.89853 2.30819
thorax -14.0284 1.09004 2.65703
lowerneck -45.0752 2.84637 1.25879
upperneck 1.823 2.69254 -1.20195
head 6.75047 0.980547 -0.207243
rclavicle -1.59028e-014 4.92986e-014
rhumerus 5.4699 28.6068 -76.3188
rradius 37.2882
rwrist -1.82504
rhand -12.1955 341.305
rfingers 7.12502
rthumb 13.8686 671.787
lclavicle -1.59028e-014 4.92986e-014
lhumerus 0.722273 -33.0074 75.6251
lradius 46.8635
lwrist 35.5702
lhand -28.5146 -364.373
lfingers 7.12502
lthumb -1.88289 -334.401
rfemur -95.3194 -11.9794 30.6034
rtibia 96.2077
rfoot -31.8348 1.34538
rtoes -2.02567
lfemur 268.237 13.6111 333.587
ltibia 90.4684
lfoot -29.4082 -5.29515
ltoes -2.37838
